<?xml version="1.0" encoding="UTF-8" standalone="no"?>
<svg
   xmlns:dc="http://purl.org/dc/elements/1.1/"
   xmlns:cc="http://creativecommons.org/ns#"
   xmlns:rdf="http://www.w3.org/1999/02/22-rdf-syntax-ns#"
   xmlns:svg="http://www.w3.org/2000/svg"
   xmlns="http://www.w3.org/2000/svg"
   xmlns:xlink="http://www.w3.org/1999/xlink"
   xmlns:sodipodi="http://sodipodi.sourceforge.net/DTD/sodipodi-0.dtd"
   xmlns:inkscape="http://www.inkscape.org/namespaces/inkscape"
   width="155.10634mm"
   height="73.223938mm"
   viewBox="0 0 155.10634 73.223938"
   version="1.1"
   id="svg8"
   sodipodi:docname="SVM_inriktning_mot_solen_vinkelberakning.svg"
   inkscape:version="1.0.1 (3bc2e813f5, 2020-09-07)">
  <defs
     id="defs2">
    <inkscape:path-effect
       effect="spiro"
       id="path-effect2077"
       is_visible="true"
       lpeversion="1" />
    <inkscape:path-effect
       effect="spiro"
       id="path-effect2037"
       is_visible="true"
       lpeversion="1" />
    <marker
       style="overflow:visible"
       id="marker1660"
       refX="0"
       refY="0"
       orient="auto"
       inkscape:stockid="Arrow1Mend"
       inkscape:isstock="true">
      <path
         transform="matrix(-0.4,0,0,-0.4,-4,0)"
         style="fill:#000000;fill-opacity:1;fill-rule:evenodd;stroke:#000000;stroke-width:1pt;stroke-opacity:1"
         d="M 0,0 5,-5 -12.5,0 5,5 Z"
         id="path1658" />
    </marker>
    <marker
       style="overflow:visible"
       id="marker1620"
       refX="0"
       refY="0"
       orient="auto"
       inkscape:stockid="Arrow1Mstart"
       inkscape:isstock="true">
      <path
         transform="matrix(0.4,0,0,0.4,4,0)"
         style="fill:#000000;fill-opacity:1;fill-rule:evenodd;stroke:#000000;stroke-width:1pt;stroke-opacity:1"
         d="M 0,0 5,-5 -12.5,0 5,5 Z"
         id="path1618" />
    </marker>
    <marker
       style="overflow:visible"
       id="Arrow1Mend"
       refX="0"
       refY="0"
       orient="auto"
       inkscape:stockid="Arrow1Mend"
       inkscape:isstock="true"
       inkscape:collect="always">
      <path
         transform="matrix(-0.4,0,0,-0.4,-4,0)"
         style="fill:#000000;fill-opacity:1;fill-rule:evenodd;stroke:#000000;stroke-width:1pt;stroke-opacity:1"
         d="M 0,0 5,-5 -12.5,0 5,5 Z"
         id="path1257" />
    </marker>
    <marker
       style="overflow:visible"
       id="Arrow1Mstart"
       refX="0"
       refY="0"
       orient="auto"
       inkscape:stockid="Arrow1Mstart"
       inkscape:isstock="true">
      <path
         transform="matrix(0.4,0,0,0.4,4,0)"
         style="fill:#000000;fill-opacity:1;fill-rule:evenodd;stroke:#000000;stroke-width:1pt;stroke-opacity:1"
         d="M 0,0 5,-5 -12.5,0 5,5 Z"
         id="path1254" />
    </marker>
    <marker
       style="overflow:visible"
       id="Arrow1Sstart"
       refX="0"
       refY="0"
       orient="auto"
       inkscape:stockid="Arrow1Sstart"
       inkscape:isstock="true">
      <path
         transform="matrix(0.2,0,0,0.2,1.2,0)"
         style="fill:#000000;fill-opacity:1;fill-rule:evenodd;stroke:#000000;stroke-width:1pt;stroke-opacity:1"
         d="M 0,0 5,-5 -12.5,0 5,5 Z"
         id="path1260" />
    </marker>
    <inkscape:path-effect
       effect="spiro"
       id="path-effect1231"
       is_visible="true"
       lpeversion="1" />
    <g
       id="g3376">
      <symbol
         overflow="visible"
         id="symbol1699">
        <path
           style="stroke:none"
           d=""
           id="path797" />
      </symbol>
      <symbol
         overflow="visible"
         id="symbol5263">
        <path
           style="stroke:none"
           d="m 2.578125,-6.8125 c 0,0 0,-0.109375 -0.140625,-0.109375 -0.21875,0 -0.953125,0.078125 -1.21875,0.109375 -0.078125,0 -0.1875,0.015625 -0.1875,0.203125 0,0.109375 0.109375,0.109375 0.25,0.109375 0.484375,0 0.5,0.09375 0.5,0.171875 L 1.75,-6.125 0.484375,-1.140625 C 0.453125,-1.03125 0.4375,-0.96875 0.4375,-0.8125 c 0,0.578125 0.4375,0.921875 0.90625,0.921875 0.328125,0 0.578125,-0.203125 0.75,-0.5625 0.171875,-0.375 0.296875,-0.953125 0.296875,-0.96875 0,-0.109375 -0.09375,-0.109375 -0.125,-0.109375 -0.09375,0 -0.109375,0.046875 -0.125,0.1875 C 1.96875,-0.703125 1.78125,-0.109375 1.375,-0.109375 c -0.296875,0 -0.296875,-0.3125 -0.296875,-0.453125 0,-0.25 0.015625,-0.296875 0.0625,-0.484375 z m 0,0"
           id="path9869" />
      </symbol>
    </g>
    <g
       id="g3935">
      <symbol
         overflow="visible"
         id="symbol3640">
        <path
           style="stroke:none"
           d=""
           id="path9394" />
      </symbol>
      <symbol
         overflow="visible"
         id="symbol1094">
        <path
           style="stroke:none"
           d="m 5.140625,-6.8125 c 0,0 0,-0.109375 -0.125,-0.109375 -0.15625,0 -1.09375,0.09375 -1.265625,0.109375 -0.078125,0.015625 -0.140625,0.0625 -0.140625,0.1875 0,0.125 0.09375,0.125 0.234375,0.125 0.484375,0 0.5,0.0625 0.5,0.171875 L 4.3125,-6.125 3.71875,-3.765625 C 3.53125,-4.140625 3.25,-4.40625 2.796875,-4.40625 c -1.15625,0 -2.390625,1.46875 -2.390625,2.921875 0,0.9375 0.546875,1.59375 1.3125,1.59375 0.203125,0 0.703125,-0.046875 1.296875,-0.75 0.078125,0.421875 0.4375,0.75 0.90625,0.75 0.359375,0 0.578125,-0.234375 0.75,-0.546875 0.15625,-0.359375 0.296875,-0.96875 0.296875,-0.984375 0,-0.109375 -0.09375,-0.109375 -0.125,-0.109375 -0.09375,0 -0.109375,0.046875 -0.140625,0.1875 -0.171875,0.640625 -0.34375,1.234375 -0.75,1.234375 -0.28125,0 -0.296875,-0.265625 -0.296875,-0.453125 0,-0.25 0.015625,-0.3125 0.046875,-0.484375 z m -2.0625,5.625 C 3.015625,-1 3.015625,-0.984375 2.875,-0.8125 2.4375,-0.265625 2.03125,-0.109375 1.75,-0.109375 c -0.5,0 -0.640625,-0.546875 -0.640625,-0.9375 0,-0.5 0.3125,-1.71875 0.546875,-2.1875 0.3125,-0.578125 0.75,-0.953125 1.15625,-0.953125 0.640625,0 0.78125,0.8125 0.78125,0.875 0,0.0625 -0.015625,0.125 -0.03125,0.171875 z m 0,0"
           id="path232" />
      </symbol>
    </g>
    <g
       id="g9021">
      <symbol
         overflow="visible"
         id="symbol4707">
        <path
           style="stroke:none"
           d=""
           id="path419" />
      </symbol>
      <symbol
         overflow="visible"
         id="symbol1494">
        <path
           style="stroke:none"
           d="m 1.578125,-0.78125 c -0.09375,0.390625 -0.109375,0.46875 -0.90625,0.46875 -0.15625,0 -0.265625,0 -0.265625,0.1875 C 0.40625,0 0.484375,0 0.671875,0 h 3.3125 c 2.0625,0 4.03125,-2.109375 4.03125,-4.28125 0,-1.40625 -0.84375,-2.53125 -2.34375,-2.53125 h -3.34375 c -0.1875,0 -0.296875,0 -0.296875,0.1875 0,0.125 0.078125,0.125 0.28125,0.125 0.125,0 0.3125,0.015625 0.421875,0.015625 0.171875,0.03125 0.21875,0.046875 0.21875,0.171875 0,0.03125 0,0.0625 -0.03125,0.1875 z M 3.734375,-6.125 C 3.828125,-6.46875 3.84375,-6.5 4.28125,-6.5 h 1.0625 c 0.96875,0 1.796875,0.53125 1.796875,1.84375 0,0.484375 -0.1875,2.125 -1.046875,3.21875 -0.28125,0.375 -1.0625,1.125 -2.296875,1.125 h -1.125 c -0.140625,0 -0.15625,0 -0.21875,0 -0.09375,-0.015625 -0.125,-0.03125 -0.125,-0.109375 0,-0.03125 0,-0.046875 0.046875,-0.21875 z m 0,0"
           id="path5873" />
      </symbol>
    </g>
    <g
       id="g3224">
      <symbol
         overflow="visible"
         id="symbol805">
        <path
           style="stroke:none"
           d=""
           id="path18" />
      </symbol>
      <symbol
         overflow="visible"
         id="symbol1657">
        <path
           style="stroke:none"
           d="m 4.53125,-4.984375 c 0,-0.65625 -0.171875,-2.046875 -1.1875,-2.046875 -1.390625,0 -2.921875,2.8125 -2.921875,5.09375 0,0.9375 0.28125,2.046875 1.1875,2.046875 1.40625,0 2.921875,-2.859375 2.921875,-5.09375 z M 1.46875,-3.625 C 1.640625,-4.25 1.84375,-5.046875 2.25,-5.765625 2.515625,-6.25 2.875,-6.8125 3.328125,-6.8125 c 0.484375,0 0.546875,0.640625 0.546875,1.203125 0,0.5 -0.078125,1 -0.3125,1.984375 z m 2,0.328125 C 3.359375,-2.84375 3.15625,-2 2.765625,-1.28125 c -0.34375,0.6875 -0.71875,1.171875 -1.15625,1.171875 -0.328125,0 -0.53125,-0.296875 -0.53125,-1.21875 0,-0.421875 0.0625,-1 0.3125,-1.96875 z m 0,0"
           id="path9575" />
      </symbol>
      <symbol
         overflow="visible"
         id="symbol9208">
        <path
           style="stroke:none"
           d=""
           id="path3700" />
      </symbol>
      <symbol
         overflow="visible"
         id="symbol5456">
        <path
           style="stroke:none"
           d="M 3.984375,-4.625 C 3.984375,-4.640625 4,-4.734375 4,-4.734375 4,-4.78125 3.984375,-4.84375 3.890625,-4.84375 3.75,-4.84375 3.171875,-4.78125 3,-4.765625 c -0.046875,0 -0.15625,0.015625 -0.15625,0.15625 0,0.09375 0.109375,0.09375 0.1875,0.09375 0.328125,0 0.328125,0.0625 0.328125,0.109375 0,0.046875 0,0.09375 -0.015625,0.15625 L 2.9375,-2.65625 c -0.140625,-0.234375 -0.375,-0.421875 -0.71875,-0.421875 -0.890625,0 -1.796875,0.984375 -1.796875,1.984375 0,0.6875 0.453125,1.15625 1.0625,1.15625 0.375,0 0.703125,-0.203125 0.984375,-0.484375 C 2.59375,0 3,0.0625 3.1875,0.0625 c 0.25,0 0.421875,-0.140625 0.546875,-0.359375 0.15625,-0.28125 0.25,-0.671875 0.25,-0.703125 0,-0.09375 -0.09375,-0.09375 -0.109375,-0.09375 -0.109375,0 -0.109375,0.03125 -0.15625,0.21875 C 3.625,-0.53125 3.5,-0.125 3.203125,-0.125 3.03125,-0.125 2.96875,-0.28125 2.96875,-0.46875 c 0,-0.125 0.015625,-0.1875 0.046875,-0.28125 z M 2.5,-0.875 C 2.453125,-0.671875 2.296875,-0.53125 2.140625,-0.40625 2.078125,-0.34375 1.796875,-0.125 1.5,-0.125 c -0.265625,0 -0.515625,-0.1875 -0.515625,-0.671875 0,-0.375 0.203125,-1.140625 0.375,-1.421875 0.3125,-0.5625 0.671875,-0.65625 0.859375,-0.65625 0.484375,0 0.625,0.53125 0.625,0.609375 0,0.015625 -0.015625,0.078125 -0.015625,0.09375 z m 0,0"
           id="path6147" />
      </symbol>
    </g>
    <g
       id="g2305">
      <symbol
         overflow="visible"
         id="symbol2727">
        <path
           style="stroke:none"
           d=""
           id="path651" />
      </symbol>
      <symbol
         overflow="visible"
         id="symbol5810">
        <path
           style="stroke:none"
           d="m 4.53125,-4.984375 c 0,-0.65625 -0.171875,-2.046875 -1.1875,-2.046875 -1.390625,0 -2.921875,2.8125 -2.921875,5.09375 0,0.9375 0.28125,2.046875 1.1875,2.046875 1.40625,0 2.921875,-2.859375 2.921875,-5.09375 z M 1.46875,-3.625 C 1.640625,-4.25 1.84375,-5.046875 2.25,-5.765625 2.515625,-6.25 2.875,-6.8125 3.328125,-6.8125 c 0.484375,0 0.546875,0.640625 0.546875,1.203125 0,0.5 -0.078125,1 -0.3125,1.984375 z m 2,0.328125 C 3.359375,-2.84375 3.15625,-2 2.765625,-1.28125 c -0.34375,0.6875 -0.71875,1.171875 -1.15625,1.171875 -0.328125,0 -0.53125,-0.296875 -0.53125,-1.21875 0,-0.421875 0.0625,-1 0.3125,-1.96875 z m 0,0"
           id="path3863" />
      </symbol>
      <symbol
         overflow="visible"
         id="symbol2239">
        <path
           style="stroke:none"
           d=""
           id="path1172" />
      </symbol>
      <symbol
         overflow="visible"
         id="symbol1244">
        <path
           style="stroke:none"
           d="M 1.3125,-0.546875 C 1.265625,-0.3125 1.25,-0.25 0.703125,-0.25 0.578125,-0.25 0.5,-0.25 0.5,-0.09375 0.5,0 0.578125,0 0.703125,0 H 3.1875 c 1.546875,0 3.03125,-1.421875 3.03125,-2.9375 0,-1.015625 -0.703125,-1.828125 -1.828125,-1.828125 H 1.84375 c -0.140625,0 -0.21875,0 -0.21875,0.15625 0,0.09375 0.078125,0.09375 0.234375,0.09375 0.109375,0 0.140625,0 0.265625,0.015625 0.140625,0.015625 0.140625,0.03125 0.140625,0.109375 0,0 0,0.046875 -0.015625,0.140625 z m 1.5625,-3.71875 c 0.0625,-0.21875 0.0625,-0.25 0.359375,-0.25 H 4.125 c 0.78125,0 1.4375,0.390625 1.4375,1.34375 0,0.15625 -0.078125,1.359375 -0.765625,2.15625 C 4.515625,-0.703125 3.921875,-0.25 3.0625,-0.25 H 2.125 c -0.21875,0 -0.234375,-0.015625 -0.234375,-0.078125 0,0 0,-0.03125 0.03125,-0.140625 z m 0,0"
           id="path7171" />
      </symbol>
    </g>
    <g
       id="g3314">
      <symbol
         overflow="visible"
         id="symbol6587">
        <path
           style="stroke:none"
           d=""
           id="path2563" />
      </symbol>
      <symbol
         overflow="visible"
         id="symbol2361">
        <path
           style="stroke:none"
           d="m 4.40625,-6.953125 c -0.0625,-0.140625 -0.09375,-0.1875 -0.265625,-0.1875 -0.15625,0 -0.1875,0.046875 -0.25,0.1875 l -3.375,6.75 C 0.46875,-0.109375 0.46875,-0.09375 0.46875,-0.078125 0.46875,0 0.53125,0 0.6875,0 h 6.921875 c 0.15625,0 0.21875,0 0.21875,-0.078125 0,-0.015625 0,-0.03125 -0.046875,-0.125 z m -0.578125,0.8125 2.6875,5.390625 h -5.375 z m 0,0"
           id="path3282" />
      </symbol>
      <symbol
         overflow="visible"
         id="symbol4314">
        <path
           style="stroke:none"
           d=""
           id="path7210" />
      </symbol>
      <symbol
         overflow="visible"
         id="symbol1842">
        <path
           style="stroke:none"
           d="m 4.53125,-4.984375 c 0,-0.65625 -0.171875,-2.046875 -1.1875,-2.046875 -1.390625,0 -2.921875,2.8125 -2.921875,5.09375 0,0.9375 0.28125,2.046875 1.1875,2.046875 1.40625,0 2.921875,-2.859375 2.921875,-5.09375 z M 1.46875,-3.625 C 1.640625,-4.25 1.84375,-5.046875 2.25,-5.765625 2.515625,-6.25 2.875,-6.8125 3.328125,-6.8125 c 0.484375,0 0.546875,0.640625 0.546875,1.203125 0,0.5 -0.078125,1 -0.3125,1.984375 z m 2,0.328125 C 3.359375,-2.84375 3.15625,-2 2.765625,-1.28125 c -0.34375,0.6875 -0.71875,1.171875 -1.15625,1.171875 -0.328125,0 -0.53125,-0.296875 -0.53125,-1.21875 0,-0.421875 0.0625,-1 0.3125,-1.96875 z m 0,0"
           id="path8805" />
      </symbol>
    </g>
    <marker
       style="overflow:visible"
       id="marker1620-8"
       refX="0"
       refY="0"
       orient="auto"
       inkscape:stockid="Arrow1Mstart"
       inkscape:isstock="true">
      <path
         transform="matrix(0.4,0,0,0.4,4,0)"
         style="fill:#000000;fill-opacity:1;fill-rule:evenodd;stroke:#000000;stroke-width:1pt;stroke-opacity:1"
         d="M 0,0 5,-5 -12.5,0 5,5 Z"
         id="path1618-6" />
    </marker>
    <marker
       style="overflow:visible"
       id="marker1660-4"
       refX="0"
       refY="0"
       orient="auto"
       inkscape:stockid="Arrow1Mend"
       inkscape:isstock="true">
      <path
         transform="matrix(-0.4,0,0,-0.4,-4,0)"
         style="fill:#000000;fill-opacity:1;fill-rule:evenodd;stroke:#000000;stroke-width:1pt;stroke-opacity:1"
         d="M 0,0 5,-5 -12.5,0 5,5 Z"
         id="path1658-5" />
    </marker>
  </defs>
  <sodipodi:namedview
     id="base"
     pagecolor="#ffffff"
     bordercolor="#666666"
     borderopacity="1.0"
     inkscape:pageopacity="0.0"
     inkscape:pageshadow="2"
     inkscape:zoom="2.0510461"
     inkscape:cx="333.7997"
     inkscape:cy="140.71934"
     inkscape:document-units="mm"
     inkscape:current-layer="layer1"
     inkscape:document-rotation="0"
     showgrid="false"
     inkscape:window-width="1920"
     inkscape:window-height="1028"
     inkscape:window-x="1912"
     inkscape:window-y="148"
     inkscape:window-maximized="1" />
  <metadata
     id="metadata5">
    <rdf:RDF>
      <cc:Work
         rdf:about="">
        <dc:format>image/svg+xml</dc:format>
        <dc:type
           rdf:resource="http://purl.org/dc/dcmitype/StillImage" />
        <dc:title></dc:title>
      </cc:Work>
    </rdf:RDF>
  </metadata>
  <g
     inkscape:label="Layer 1"
     inkscape:groupmode="layer"
     id="layer1"
     transform="translate(-24.617539,-40.211213)">
    <path
       style="fill:none;stroke:#000000;stroke-width:0.30000001;stroke-linecap:butt;stroke-linejoin:miter;stroke-miterlimit:4;stroke-dasharray:0.90000004,0.90000004;stroke-dashoffset:0.42000002;stroke-opacity:1"
       d="M 178.80331,72.430041 H 33.141422"
       id="path833" />
    <path
       style="fill:none;stroke:#000000;stroke-width:0.4;stroke-linecap:butt;stroke-linejoin:miter;stroke-miterlimit:4;stroke-dasharray:none;stroke-dashoffset:0;stroke-opacity:1;marker-start:url(#marker1620);marker-end:url(#marker1660)"
       d="M 33.273713,41.150219 V 103.63041"
       id="path835" />
    <path
       style="fill:none;stroke:#000000;stroke-width:0.3;stroke-linecap:butt;stroke-linejoin:miter;stroke-miterlimit:4;stroke-dasharray:none;stroke-dashoffset:0;stroke-opacity:1"
       d="M 48.24215,55.063676 178.80331,72.430041 33.273713,40.357698"
       id="path852"
       sodipodi:nodetypes="ccc" />
    <path
       style="fill:none;stroke:#000000;stroke-width:0.3;stroke-linecap:butt;stroke-linejoin:miter;stroke-miterlimit:4;stroke-dasharray:none;stroke-dashoffset:0;stroke-opacity:1"
       d="M 48.24215,90.063676 178.80331,72.430041 33.273713,104.50238"
       id="path854"
       sodipodi:nodetypes="ccc" />
    <g
       inkscape:label=""
       transform="matrix(0.71111111,0,0,0.71111111,39.663543,55.072576)"
       id="g872"
       style="stroke-width:1.40625">
      <g
         id="g4703"
         style="stroke-width:1.40625">
        <g
           style="fill:#000000;fill-opacity:1;stroke-width:1.40625"
           id="g412">
          <use
             xlink:href="#symbol5263"
             x="91.925003"
             y="81.962997"
             id="use6280"
             width="100%"
             height="100%"
             style="stroke-width:1.40625" />
        </g>
      </g>
    </g>
    <g
       inkscape:label=""
       transform="matrix(0.73394495,0,0,0.73394495,-43.148518,14.773713)"
       id="g957"
       style="stroke-width:1.3625">
      <g
         id="g7101"
         style="stroke-width:1.3625">
        <g
           style="fill:#000000;fill-opacity:1;stroke-width:1.3625"
           id="g3831">
          <use
             xlink:href="#symbol1494"
             x="91.925003"
             y="81.962997"
             id="use1778"
             width="100%"
             height="100%"
             style="stroke-width:1.3625" />
        </g>
      </g>
    </g>
    <g
       inkscape:label=""
       transform="matrix(0.68965517,0,0,0.68965517,0.57389503,37.897767)"
       id="g1200"
       style="stroke-width:1.45">
      <g
         id="g1253"
         style="stroke-width:1.45">
        <g
           style="fill:#000000;fill-opacity:1;stroke-width:1.45"
           id="g386">
          <use
             xlink:href="#symbol2361"
             x="91.925003"
             y="81.962997"
             id="use5141"
             width="100%"
             height="100%"
             style="stroke-width:1.45" />
        </g>
        <g
           style="fill:#000000;fill-opacity:1;stroke-width:1.45"
           id="g2361">
          <use
             xlink:href="#symbol1842"
             x="100.227"
             y="81.962997"
             id="use2478"
             width="100%"
             height="100%"
             style="stroke-width:1.45" />
        </g>
      </g>
    </g>
    <rect
       style="fill:#fffffd;fill-opacity:1;stroke:none;stroke-width:0.3;stroke-linecap:round;stroke-linejoin:round;stroke-miterlimit:4;stroke-dasharray:none;stroke-dashoffset:0;paint-order:fill markers stroke"
       id="rect1224"
       width="4.1358089"
       height="8.1501112"
       x="42.626461"
       y="67.893974" />
    <path
       style="fill:none;stroke:#000000;stroke-width:0.3;stroke-linecap:butt;stroke-linejoin:miter;stroke-miterlimit:4;stroke-dasharray:none;stroke-opacity:1"
       d="m 122.07042,64.930378 c -1.46679,1.011212 -2.62827,2.459354 -3.29697,4.110676 -0.6687,1.651323 -0.84208,3.499591 -0.49217,5.246469 0.4623,2.30794 1.85125,4.416625 3.78914,5.752618"
       id="path1229"
       inkscape:path-effect="#path-effect1231"
       inkscape:original-d="m 122.07042,64.930378 c -3.2451,2.06271 -4.51958,5.859967 -3.78914,9.357145 0.46113,2.207769 1.7213,4.295945 3.78914,5.752618"
       sodipodi:nodetypes="csc" />
    <path
       style="fill:none;stroke:#000000;stroke-width:0.4;stroke-linecap:butt;stroke-linejoin:miter;stroke-miterlimit:4;stroke-dasharray:none;stroke-dashoffset:0;stroke-opacity:1;marker-start:url(#Arrow1Mstart);marker-end:url(#Arrow1Mend)"
       d="M 178.9356,106.30166 H 33.273713"
       id="path833-4" />
    <path
       style="fill:none;stroke:#000000;stroke-width:0.4;stroke-linecap:butt;stroke-linejoin:miter;stroke-miterlimit:4;stroke-dasharray:none;stroke-dashoffset:0;stroke-opacity:1;marker-start:url(#marker1620-8);marker-end:url(#marker1660-4)"
       d="M 48.242149,55.670283 V 89.173156"
       id="path835-6" />
    <rect
       style="fill:#fffffd;fill-opacity:1;stroke:none;stroke-width:0.275;stroke-linecap:round;stroke-linejoin:round;stroke-miterlimit:4;stroke-dasharray:none;stroke-dashoffset:0;paint-order:fill markers stroke"
       id="rect1224-3"
       width="8.4849186"
       height="8.1501112"
       x="109.16429"
       y="67.874252" />
    <rect
       style="fill:#fffffd;fill-opacity:1;stroke:none;stroke-width:0.3;stroke-linecap:round;stroke-linejoin:round;stroke-miterlimit:4;stroke-dasharray:none;stroke-dashoffset:0;paint-order:fill markers stroke"
       id="rect1224-3-6"
       width="9.1122894"
       height="8.1501112"
       x="83.880768"
       y="67.985756" />
    <path
       style="fill:none;stroke:#000000;stroke-width:0.275;stroke-linecap:butt;stroke-linejoin:miter;stroke-miterlimit:4;stroke-dasharray:none;stroke-opacity:1"
       d="m 75.510789,86.342692 c -0.622759,0.777679 -1.027447,1.728132 -1.156448,2.716045 -0.129001,0.987913 0.01806,2.010413 0.420245,2.921928 0.529399,1.199832 1.50474,2.196711 2.692724,2.752187"
       id="path1229-6"
       inkscape:path-effect="#path-effect2077"
       inkscape:original-d="m 75.510789,86.342692 c -1.401071,1.524033 -1.564531,3.781288 -0.736203,5.637973 0.522925,1.172126 1.441117,2.184609 2.692724,2.752187"
       sodipodi:nodetypes="csc" />
    <rect
       style="fill:#fffffd;fill-opacity:1;stroke:none;stroke-width:0.312709;stroke-linecap:round;stroke-linejoin:round;stroke-miterlimit:4;stroke-dasharray:none;stroke-dashoffset:0;paint-order:fill markers stroke"
       id="rect1224-3-6-6"
       width="0.85498965"
       height="2.6383615"
       x="122.55121"
       y="65.743561"
       transform="matrix(0.99999012,-0.00444442,-0.38696853,0.92209292,0,0)" />
    <rect
       style="fill:#fffffd;fill-opacity:1;stroke:none;stroke-width:0.312708;stroke-linecap:round;stroke-linejoin:round;stroke-miterlimit:4;stroke-dasharray:none;stroke-dashoffset:0;paint-order:fill markers stroke"
       id="rect1224-3-6-6-1"
       width="0.85498965"
       height="2.6383615"
       x="-62.50745"
       y="88.983223"
       transform="matrix(-0.99999012,-0.00444442,0.38696853,0.92209292,0,0)" />
  </g>
  <g
     inkscape:groupmode="layer"
     id="layer2"
     inkscape:label="Layer 2"
     transform="translate(-24.617539,-40.211213)">
    <g
       inkscape:label=""
       transform="matrix(0.68509486,0,0,0.71111111,-20.24555,16.31662)"
       id="g910"
       style="stroke-width:1.4327">
      <g
         id="g2243"
         style="stroke-width:1.4327">
        <g
           style="fill:#000000;fill-opacity:1;stroke-width:1.4327"
           id="g4693">
          <use
             xlink:href="#symbol1094"
             x="91.925003"
             y="81.962997"
             id="use3392"
             width="100%"
             height="100%"
             style="stroke-width:1.4327" />
        </g>
      </g>
    </g>
    <g
       inkscape:label=""
       transform="matrix(0.69866936,0,0,0.69866936,46.254902,17.077525)"
       id="g1019"
       style="stroke-width:1.43129">
      <g
         id="g8107"
         style="stroke-width:1.43129">
        <g
           style="fill:#000000;fill-opacity:1;stroke-width:1.43129"
           id="g7884">
          <use
             xlink:href="#symbol1657"
             x="91.925003"
             y="81.962997"
             id="use6746"
             width="100%"
             height="100%"
             style="stroke-width:1.43129" />
        </g>
        <g
           style="fill:#000000;fill-opacity:1;stroke-width:1.43129"
           id="g8483">
          <use
             xlink:href="#symbol5456"
             x="96.601997"
             y="83.457001"
             id="use4443"
             width="100%"
             height="100%"
             style="stroke-width:1.43129" />
        </g>
      </g>
    </g>
    <g
       inkscape:label=""
       transform="matrix(0.7037914,0,0,0.7037914,20.054355,16.693722)"
       id="g1102"
       style="stroke-width:1.42088">
      <g
         id="g3191"
         style="stroke-width:1.42088">
        <g
           style="fill:#000000;fill-opacity:1;stroke-width:1.42088"
           id="g8803">
          <use
             xlink:href="#symbol5810"
             x="91.925003"
             y="81.962997"
             id="use263"
             width="100%"
             height="100%"
             style="stroke-width:1.42088" />
        </g>
        <g
           style="fill:#000000;fill-opacity:1;stroke-width:1.42088"
           id="g2225">
          <use
             xlink:href="#symbol1244"
             x="96.601997"
             y="83.457001"
             id="use1737"
             width="100%"
             height="100%"
             style="stroke-width:1.42088" />
        </g>
      </g>
    </g>
    <path
       style="fill:none;stroke:#000000;stroke-width:0.275;stroke-linecap:butt;stroke-linejoin:miter;stroke-miterlimit:4;stroke-dasharray:none;stroke-opacity:1"
       d="m 101.70253,55.406086 c -2.869071,2.601169 -5.063264,5.9405 -6.31207,9.606305 -1.248806,3.665806 -1.549529,7.650173 -0.865095,11.461891 0.88823,4.946689 3.453805,9.576691 7.177165,12.952379"
       id="path1229-7"
       inkscape:path-effect="#path-effect2037"
       inkscape:original-d="m 101.70253,55.406086 c -6.14668,4.644321 -8.560718,13.194081 -7.177165,21.068196 0.873443,4.970929 3.260376,9.672587 7.177165,12.952379"
       sodipodi:nodetypes="csc" />
  </g>
</svg>
